<?xml version="1.0" encoding="UTF-8"?>
<svg version="1.1" xmlns="http://www.w3.org/2000/svg" width="225" height="225">
<path d="M0 0 C74.25 0 148.5 0 225 0 C225 74.25 225 148.5 225 225 C150.75 225 76.5 225 0 225 C0 150.75 0 76.5 0 0 Z " fill="#FDFDFD" transform="translate(0,0)"/>
<path d="M0 0 C13.67343152 -0.73489127 27.92110432 4.96330382 38.0859375 13.80859375 C40.97270998 16.44414394 43.07323759 18.62054669 44.5859375 22.24609375 C44.06644531 22.62121094 43.54695312 22.99632813 43.01171875 23.3828125 C32.61553393 31.01180579 24.33019205 40.29567903 21.5859375 53.24609375 C20.09992675 66.66483457 21.82976522 79.00131057 29.8984375 90.15625 C35.57113395 97.18146435 41.64795185 101.95177365 49.5859375 106.24609375 C47.17879898 123.17051099 35.74043378 138.754729 24.5859375 151.24609375 C23.98007813 151.93445313 23.37421875 152.6228125 22.75 153.33203125 C17.80665432 158.63326621 11.50587542 162.76971881 4.125 163.484375 C-4.88361239 163.71381687 -12.65272984 161.70881629 -20.91796875 158.17578125 C-32.34872898 153.918315 -43.31254205 155.9091845 -54.4140625 159.74609375 C-63.64735327 162.90569746 -72.42295796 165.80432015 -82.05078125 162.28125 C-89.25364677 158.55480883 -94.83585801 153.17494183 -99.7265625 146.80859375 C-100.43377441 145.89388306 -100.43377441 145.89388306 -101.15527344 144.96069336 C-121.4173166 118.38467009 -133.59457115 86.27383716 -130.015625 52.484375 C-127.43610171 36.45448024 -119.16994989 20.58872443 -105.9375 10.87890625 C-93.08293599 2.56124718 -80.84596811 -1.00318585 -65.5625 2.00390625 C-58.88421837 3.73128256 -52.42885449 5.82520608 -46.07421875 8.51171875 C-38.40114578 10.62998265 -32.36894302 8.5147805 -25.1640625 5.87109375 C-16.75514344 2.93407715 -8.87060025 0.90428449 0 0 Z " fill="#000000" transform="translate(152.4140625,55.75390625)"/>
<path d="M0 0 C0.97922125 15.34113298 -3.85250873 25.60997194 -13.79296875 37.06640625 C-20.62484857 44.30475947 -28.17663994 48.25897221 -38 50 C-39.9995052 50.04448548 -42.00077569 50.05569687 -44 50 C-44.84547609 36.54283891 -40.89452686 25.5376942 -32.41015625 15.03125 C-24.50953506 6.55434821 -11.86641787 -1.03186242 0 0 Z " fill="#010101" transform="translate(157,6)"/>
</svg>
