<?xml version="1.0" encoding="UTF-8"?>
<svg version="1.1" xmlns="http://www.w3.org/2000/svg" width="371" height="136">
<path d="M0 0 C122.43 0 244.86 0 371 0 C371 44.88 371 89.76 371 136 C248.57 136 126.14 136 0 136 C0 91.12 0 46.24 0 0 Z " fill="#FEFEFE" transform="translate(0,0)"/>
<path d="M0 0 C9.9 0 19.8 0 30 0 C30 9.9 30 19.8 30 30 C20.1 30 10.2 30 0 30 C0 20.1 0 10.2 0 0 Z " fill="#F05529" transform="translate(40,37)"/>
<path d="M0 0 C9.9 0 19.8 0 30 0 C30 9.57 30 19.14 30 29 C20.1 29 10.2 29 0 29 C0 19.43 0 9.86 0 0 Z " fill="#05A4ED" transform="translate(40,70)"/>
<path d="M0 0 C9.57 0 19.14 0 29 0 C29 9.57 29 19.14 29 29 C19.43 29 9.86 29 0 29 C0 19.43 0 9.86 0 0 Z " fill="#FDB700" transform="translate(73,70)"/>
<path d="M0 0 C9.57 0 19.14 0 29 0 C29 9.57 29 19.14 29 29 C19.43 29 9.86 29 0 29 C0 19.43 0 9.86 0 0 Z " fill="#7FB902" transform="translate(73,37)"/>
<path d="M0 0 C2.97 0 5.94 0 9 0 C19 18.85106383 19 18.85106383 19 26 C19.66 26 20.32 26 21 26 C21.13535156 25.46375 21.27070313 24.9275 21.41015625 24.375 C23.74353132 15.87983805 27.37546896 8.00375896 31 0 C33.97 0 36.94 0 40 0 C40 12.21 40 24.42 40 37 C38.02 37 36.04 37 34 37 C33.67 28.09 33.34 19.18 33 10 C32.33613281 11.86527344 31.67226562 13.73054688 30.98828125 15.65234375 C30.09741757 18.08111948 29.20543232 20.50948403 28.3125 22.9375 C27.87744141 24.16919922 27.44238281 25.40089844 26.99414062 26.66992188 C26.55908203 27.83974609 26.12402344 29.00957031 25.67578125 30.21484375 C25.0866394 31.84087524 25.0866394 31.84087524 24.4855957 33.49975586 C23 36 23 36 20.33276367 36.86157227 C19.56295166 36.90725342 18.79313965 36.95293457 18 37 C13.92221535 28.43805355 10.31916975 19.88366021 7 11 C6.67 19.58 6.34 28.16 6 37 C4.02 37 2.04 37 0 37 C0 24.79 0 12.58 0 0 Z " fill="#737373" transform="translate(121,50)"/>
<path d="M0 0 C3.3101391 1.60127188 5.20596791 3.91722897 7.375 6.875 C8.7179567 11.44105278 8.24926291 15.18297158 6.875 19.6875 C4.60436215 23.69896021 3.2196672 25.11622 -1 27 C-5.45035052 27.70198981 -9.85139427 28.0764302 -13.97265625 26.01171875 C-16.75276273 23.80539346 -19.02366158 21.41718447 -20 18 C-20.55437107 11.12579872 -19.51516457 7.08310496 -15.0625 1.625 C-10.18705781 -0.96196933 -5.39152548 -0.8535974 0 0 Z " fill="#767676" transform="translate(239,60)"/>
<path d="M0 0 C0 1.65 0 3.3 0 5 C-1.98 5.66 -3.96 6.32 -6 7 C-6.33 8.98 -6.66 10.96 -7 13 C-4.03 13 -1.06 13 2 13 C2 11.02 2 9.04 2 7 C4.31 6.34 6.62 5.68 9 5 C9 7.64 9 10.28 9 13 C10.98 13 12.96 13 15 13 C15 14.65 15 16.3 15 18 C13.02 18 11.04 18 9 18 C9.495 25.92 9.495 25.92 10 34 C11.65 34.33 13.3 34.66 15 35 C15 36.65 15 38.3 15 40 C13.56344146 40.08131463 12.1255517 40.13933559 10.6875 40.1875 C9.48673828 40.23970703 9.48673828 40.23970703 8.26171875 40.29296875 C6 40 6 40 4.26953125 38.67578125 C1.32522467 34.78929657 1.88496661 30.4394794 1.9375 25.8125 C1.94201172 25.06291016 1.94652344 24.31332031 1.95117188 23.54101562 C1.96293646 21.69397617 1.98087135 19.84697787 2 18 C-0.97 18 -3.94 18 -7 18 C-7 25.26 -7 32.52 -7 40 C-8.98 40 -10.96 40 -13 40 C-13 32.74 -13 25.48 -13 18 C-14.65 18 -16.3 18 -18 18 C-18 16.35 -18 14.7 -18 13 C-16.35 13 -14.7 13 -13 13 C-13.103125 11.783125 -13.20625 10.56625 -13.3125 9.3125 C-13.29408036 5.85574718 -13.02409685 5.03614527 -11 2 C-6.97020535 -0.68652977 -4.76065969 -0.40344574 0 0 Z " fill="#777777" transform="translate(316,47)"/>
<path d="M0 0 C3.22740807 1.63489714 5.35993068 3.71986136 7 7 C8.02705184 18.24705946 8.02705184 18.24705946 5.25 22.625 C2.44833873 25.58230912 0.45831694 26.79072491 -3.5859375 27.37109375 C-12.04522412 27.57250534 -12.04522412 27.57250534 -15.5625 24.75 C-19.50730599 20.29944966 -20.45525955 17.1105575 -20.3203125 11.25 C-19.70905044 6.95625675 -17.32934154 4.2239312 -14.2265625 1.3671875 C-9.91772657 -1.27858895 -4.86279151 -0.71416164 0 0 Z " fill="#747474" transform="translate(290,60)"/>
<path d="M0 0 C0 1.98 0 3.96 0 6 C-2.97 6 -5.94 6 -9 6 C-9 6.99 -9 7.98 -9 9 C-8.36191406 9.34933594 -7.72382813 9.69867188 -7.06640625 10.05859375 C-6.24011719 10.51363281 -5.41382813 10.96867187 -4.5625 11.4375 C-3.73878906 11.88996094 -2.91507812 12.34242187 -2.06640625 12.80859375 C0 14 0 14 1 15 C1.69288203 22.04430065 1.69288203 22.04430065 -0.8125 25.5 C-5.45906797 27.68662022 -9.93940558 27.51794674 -15 27 C-16 26 -16 26 -16.0625 22.9375 C-16.041875 21.968125 -16.02125 20.99875 -16 20 C-15.01 20.33 -14.02 20.66 -13 21 C-10.66700175 21.03954234 -8.33291811 21.04401732 -6 21 C-6 20.01 -6 19.02 -6 18 C-6.95712891 17.49339844 -6.95712891 17.49339844 -7.93359375 16.9765625 C-8.75988281 16.53054687 -9.58617187 16.08453125 -10.4375 15.625 C-11.67306641 14.96371094 -11.67306641 14.96371094 -12.93359375 14.2890625 C-15 13 -15 13 -16 11 C-16.44520706 6.99313644 -16.63426635 4.85297888 -14.1875 1.5625 C-9.50676177 -0.73197952 -5.12149648 -0.32289645 0 0 Z " fill="#757575" transform="translate(266,60)"/>
<path d="M0 0 C1 1 1 1 1.0625 4.0625 C1.041875 5.031875 1.02125 6.00125 1 7 C0.01 6.67 -0.98 6.34 -2 6 C-5.74959624 5.53886014 -8.89023281 5.2265259 -12.0625 7.4375 C-13.47133119 11.28830526 -13.19392819 15.08572911 -12 19 C-8.31884463 21.45410358 -6.34706402 21.23287843 -2 21 C-1.01 20.67 -0.02 20.34 1 20 C1 21.98 1 23.96 1 26 C-4.66176365 27.88725455 -10.10995202 27.91127314 -15.5 25.3125 C-19.44012515 21.66788423 -20.09616976 18.71788529 -20.3125 13.5 C-20.1726298 8.22864177 -18.39719974 5.66762549 -15.0625 1.6875 C-10.29503663 -0.93946961 -5.33674847 -0.49929702 0 0 Z " fill="#767676" transform="translate(198,60)"/>
<path d="M0 0 C2.31 0 4.62 0 7 0 C7.33 0.66 7.66 1.32 8 2 C8.66 1.34 9.32 0.68 10 0 C13.125 -0.125 13.125 -0.125 16 0 C16 1.98 16 3.96 16 6 C15.05125 5.938125 14.1025 5.87625 13.125 5.8125 C11.578125 5.9053125 11.578125 5.9053125 10 6 C7.9859044 9.0211434 7.73163404 9.80660017 7.5859375 13.23046875 C7.54726562 14.03291016 7.50859375 14.83535156 7.46875 15.66210938 C7.4378125 16.49548828 7.406875 17.32886719 7.375 18.1875 C7.33632812 19.03248047 7.29765625 19.87746094 7.2578125 20.74804688 C7.16363721 22.83167524 7.08073325 24.91580753 7 27 C4.69 27 2.38 27 0 27 C0 18.09 0 9.18 0 0 Z " fill="#7E7E7E" transform="translate(203,60)"/>
<path d="M0 0 C2.4375 1.4375 2.4375 1.4375 4 4 C4.77201236 8.33759522 4.75587974 11.76035723 2.4375 15.5625 C-0.94050003 17.55465386 -3.14902866 17.56014129 -7 17 C-9.10077407 14.87011589 -9.92060683 13.49270467 -10.3984375 10.52734375 C-10.39070313 9.67269531 -10.38296875 8.81804687 -10.375 7.9375 C-10.38273437 7.08027344 -10.39046875 6.22304687 -10.3984375 5.33984375 C-9.39509302 -0.55234589 -5.25995654 -0.64595958 0 0 Z " fill="#FAFAFA" transform="translate(287,65)"/>
<path d="M0 0 C1.875 0.37109375 1.875 0.37109375 3.875 1.80859375 C5.38868916 5.68742221 5.54490207 9.26888442 4.875 13.37109375 C3.25 15.93359375 3.25 15.93359375 0.875 17.37109375 C-2.69216403 17.96562109 -4.39951464 17.81020331 -7.5 15.93359375 C-9.90986908 12.13341558 -9.75965483 8.74940872 -9.125 4.37109375 C-7.35761874 -0.15782073 -4.45772603 -0.27041353 0 0 Z " fill="#FBFBFB" transform="translate(235.125,64.62890625)"/>
<path d="M0 0 C2.31 0 4.62 0 7 0 C7 8.91 7 17.82 7 27 C4.69 27 2.38 27 0 27 C0 18.09 0 9.18 0 0 Z " fill="#808080" transform="translate(167,60)"/>
<path d="M0 0 C2.5 0.125 2.5 0.125 3.5 1.125 C3.54063832 2.79117115 3.542721 4.45888095 3.5 6.125 C1.5085944 6.50633299 -0.49279077 6.83825582 -2.5 7.125 C-3.5 6.125 -3.5 6.125 -3.625 3.625 C-3.45661291 0.25725827 -3.36774173 0.16838709 0 0 Z " fill="#777777" transform="translate(170.5,48.875)"/>
</svg>
