<?xml version="1.0" encoding="UTF-8"?>
<svg version="1.1" xmlns="http://www.w3.org/2000/svg" width="1200" height="325">
<path d="M0 0 C16.17 0 32.34 0 49 0 C58.20645489 24.91158382 67.1322916 49.91979588 76.05172729 74.93531799 C80.64552083 87.81605338 85.25843434 100.68991191 89.875 113.5625 C90.2352124 114.56709259 90.5954248 115.57168518 90.96655273 116.60671997 C98.30523666 137.07322708 105.6539922 157.53612112 113 178 C113.33 119.26 113.66 60.52 114 0 C131.16 0 148.32 0 166 0 C166 99.99 166 199.98 166 303 C162.38992848 304.80503576 160.5472466 305.35434918 156.68066406 305.77783203 C155.61986633 305.89780548 154.5590686 306.01777893 153.46612549 306.14138794 C152.32746033 306.26230804 151.18879517 306.38322815 150.015625 306.5078125 C148.84489441 306.63815887 147.67416382 306.76850525 146.46795654 306.90280151 C142.72938856 307.31737693 138.98975767 307.72131162 135.25 308.125 C132.71476654 308.4042478 130.17960916 308.68418728 127.64453125 308.96484375 C121.43054799 309.65125705 115.2156588 310.32893817 109 311 C99.31637921 283.60608594 89.9569088 256.10778378 80.68263626 228.5733223 C72.30398641 203.69952233 63.83066272 178.86432145 55.09375 154.11352539 C54.3798272 152.08123577 53.68116715 150.04350145 53 148 C52.67 204.1 52.34 260.2 52 318 C34.84 320.31 17.68 322.62 0 325 C0 217.75 0 110.5 0 0 Z " fill="#D81E25" transform="translate(0,0)"/>
<path d="M0 0 C18.48 0 36.96 0 56 0 C66.66666667 27.33333333 77.33333333 54.66666667 88 82 C96.60737645 62.13507456 104.94434419 42.16341859 113.21484375 22.15625 C113.54673203 21.35392441 113.8786203 20.55159882 114.2205658 19.72496033 C115.67749961 16.20248096 117.13244417 12.67925749 118.57861328 9.15234375 C119.02833496 8.06050781 119.47805664 6.96867188 119.94140625 5.84375 C120.32111572 4.91755859 120.7008252 3.99136719 121.09204102 3.03710938 C122 1 122 1 123 0 C124.7492872 -0.09365006 126.50236254 -0.11744438 128.25415039 -0.11352539 C129.37523697 -0.11344986 130.49632355 -0.11337433 131.65138245 -0.11329651 C133.48103798 -0.10555458 133.48103798 -0.10555458 135.34765625 -0.09765625 C137.2100016 -0.09553383 137.2100016 -0.09553383 139.10997009 -0.09336853 C142.41605491 -0.08870591 145.72207146 -0.07971497 149.02813721 -0.06866455 C152.3996115 -0.05844827 155.77109283 -0.05387045 159.14257812 -0.04882812 C165.76173775 -0.03777395 172.38086493 -0.02101736 179 0 C178.17495395 4.52436686 176.66845474 8.54652098 174.88671875 12.76953125 C174.56562134 13.54093445 174.24452393 14.31233765 173.91369629 15.1071167 C172.84260274 17.67739788 171.76502369 20.2449086 170.6875 22.8125 C169.92249544 24.64491832 169.15793807 26.47752339 168.39379883 28.31030273 C166.7688127 32.20591203 165.14124042 36.10042641 163.51171875 39.99414062 C161.0430043 45.89444477 158.58284939 51.79828796 156.125 57.703125 C155.30518724 59.67236805 154.48536297 61.64160631 153.66552734 63.61083984 C153.25743835 64.59107117 152.84934937 65.57130249 152.42889404 66.58123779 C147.24385981 79.03332478 142.05276767 91.4828822 136.85203552 103.92842102 C135.02676971 108.29693018 133.20284726 112.66599961 131.37905884 117.03512573 C130.51350438 119.10761312 129.64729228 121.179826 128.78036499 123.2517395 C128.36904327 124.23480072 127.95772156 125.21786194 127.53393555 126.23071289 C126.93532211 127.65960091 126.93532211 127.65960091 126.32461548 129.11735535 C125.55849391 130.95993624 124.80050085 132.80592153 124.05136108 134.6554718 C122.53726854 138.3911379 121.03077299 142.04833124 119.10131836 145.59033203 C116.19592413 151.35774966 115.60511408 155.19610956 117.484375 161.28768921 C118.96596686 165.43299759 120.69646863 169.45853151 122.4375 173.5 C123.18470848 175.32635602 123.92684727 177.15479311 124.66430664 178.98510742 C126.25285457 182.92160883 127.85979052 186.84991654 129.4765625 190.77490234 C133.41923397 200.42014858 137.03282166 210.1911412 140.67977905 219.95101929 C142.78143712 225.56807057 144.90165412 231.17811133 147.01953125 236.7890625 C147.85768976 239.01200464 148.69574389 241.23498613 149.53369141 243.45800781 C153.03592488 252.74804505 156.53897329 262.0377732 160.04522705 271.32629395 C160.75986949 273.21996915 161.4741891 275.11376623 162.18817139 277.00769043 C165.51397749 285.82970179 168.84621493 294.64800854 172.27734375 303.4296875 C172.75606934 304.65792236 173.23479492 305.88615723 173.72802734 307.15161133 C174.58272973 309.33621561 175.44320335 311.5185761 176.31103516 313.69799805 C176.67374512 314.62394775 177.03645508 315.54989746 177.41015625 316.50390625 C177.72090088 317.28580322 178.03164551 318.0677002 178.35180664 318.87329102 C179 321 179 321 179 325 C177.30979082 324.76768983 175.61971757 324.53439082 173.9296875 324.30078125 C172.26534668 324.07334229 172.26534668 324.07334229 170.56738281 323.84130859 C168.07064895 323.48373616 165.57765507 323.09917594 163.08886719 322.68994141 C156.26843661 321.59280073 149.93669353 320.92137589 143.0234375 321.09765625 C134.98679281 321.04750871 127.7614521 320.7182362 121 316 C113.71070458 307.02010305 111.00561222 294.11474742 107.82351685 283.23918152 C104.64648545 272.44990383 100.53501275 262.07276928 96.35339355 251.6401062 C95.13878745 248.59704296 93.94533661 245.54653292 92.75878906 242.49243164 C92.02939349 240.62121885 91.2999061 238.75004184 90.5703125 236.87890625 C90.07155106 235.59270386 90.07155106 235.59270386 89.56271362 234.28051758 C89.09878708 233.10054199 89.09878708 233.10054199 88.62548828 231.89672852 C88.35842072 231.21288589 88.09135315 230.52904327 87.81619263 229.82447815 C86.93938981 227.72863503 86.93938981 227.72863503 85 225 C84.73850159 225.61433899 84.47700317 226.22867798 84.20758057 226.8616333 C83.40505347 228.74695778 82.60248799 230.63226591 81.79989624 232.51756287 C80.84666855 234.75681917 79.89356738 236.99612934 78.94058228 239.23548889 C76.31737897 245.39852033 73.69114037 251.56022741 71.05908203 257.71948242 C64.43481597 273.21749215 64.43481597 273.21749215 57.9765625 288.78515625 C57.42982523 290.1111937 56.88265288 291.43705188 56.33496094 292.76269531 C55.38735502 295.06674048 54.45477669 297.37704524 53.54003906 299.69433594 C52.92854004 301.17015137 52.92854004 301.17015137 52.3046875 302.67578125 C51.97452637 303.49989502 51.64436523 304.32400879 51.30419922 305.1730957 C50 307 50 307 47.74082947 307.64151001 C44.93728105 308.0082034 42.64333236 307.91018553 39.8425293 307.56274414 C38.84186935 307.4425441 37.84120941 307.32234406 36.81022644 307.19850159 C35.7423439 307.06209763 34.67446136 306.92569366 33.57421875 306.78515625 C31.92012749 306.58326942 31.92012749 306.58326942 30.23262024 306.37730408 C26.71662154 305.94644028 23.20209966 305.5046167 19.6875 305.0625 C17.30152146 304.7681565 14.91545458 304.47452818 12.52929688 304.18164062 C6.68514805 303.46271766 0.84217315 302.73479569 -5 302 C-6.16593835 298.08431025 -5.62878613 296.44104612 -3.88671875 292.70703125 C-3.39018799 291.62389648 -2.89365723 290.54076172 -2.38208008 289.42480469 C-1.82286865 288.23274414 -1.26365723 287.04068359 -0.6875 285.8125 C0.21038923 283.86153858 1.10346113 281.90841739 1.99623108 279.95510864 C2.63884195 278.54933861 3.28270869 277.1441421 3.92771912 275.73947144 C7.56301279 267.81063617 11.06245373 259.82308583 14.55804443 251.83190918 C15.69903226 249.22363752 16.84170376 246.61610957 17.98486328 244.00878906 C19.5425494 240.45581025 21.09966422 236.9025821 22.65625 233.34912109 C25.35938136 227.17891161 28.06356671 221.00915983 30.77436829 214.84231567 C32.66263854 210.54560551 34.5433033 206.24591592 36.40698242 201.93847656 C39.6397813 194.48831182 42.90905769 187.08266346 46.51741028 179.80528259 C48.02121993 176.76689971 49.48541546 173.71014918 50.94815063 170.65182495 C51.63551033 169.24565616 52.34313357 167.8491655 53.0730896 166.46463013 C56.05065479 160.81311834 58.8296688 155.4296388 57.2800293 148.90820312 C56.12093143 145.21577017 54.59980814 141.71040464 52.98724365 138.19604492 C51.68353241 135.29604303 50.56561769 132.33944392 49.442276 129.36592102 C48.56297113 127.04340636 47.66032151 124.7312732 46.75024414 122.4206543 C44.67609116 117.15401521 42.61112384 111.88380913 40.546875 106.61328125 C40.17836929 105.67321732 39.80986359 104.73315338 39.43019104 103.76460266 C33.10796606 87.63071426 26.86238166 71.4669087 20.60620117 55.30732727 C18.15990128 48.98985533 15.7081747 42.67451921 13.25245667 36.36070251 C11.65154406 32.24330548 10.05328598 28.12488123 8.45553589 24.0062561 C7.69753708 22.05411825 6.93837374 20.10243214 6.17800903 18.1512146 C5.1325325 15.46787415 4.09116676 12.78297386 3.05078125 10.09765625 C2.73929138 9.30120697 2.42780151 8.50475769 2.10687256 7.68417358 C0 2.22800916 0 2.22800916 0 0 Z " fill="#D81E25" transform="translate(1021,0)"/>
<path d="M0 0 C46.53 0 93.06 0 141 0 C141 16.83 141 33.66 141 51 C111.3 51 81.6 51 51 51 C51 73.11 51 95.22 51 118 C67.01847201 117.67280692 67.01847201 117.67280692 83.03686523 117.34179688 C85.08577203 117.30064622 87.13468139 117.25962272 89.18359375 117.21875 C90.19780396 117.1971582 91.21201416 117.17556641 92.25695801 117.15332031 C101.17655515 116.97807855 110.07257057 117 119 117 C119 134.16 119 151.32 119 169 C96.56 169.33 74.12 169.66 51 170 C51 194.42 51 218.84 51 244 C68.90308917 242.73053738 68.90308917 242.73053738 86.8059082 241.45727539 C108.0170584 239.95427742 108.0170584 239.95427742 118.48046875 239.37109375 C119.49262199 239.3114016 119.49262199 239.3114016 120.52522278 239.25050354 C127.36799432 238.89289183 134.11647052 239 141 239 C141 255.5 141 272 141 289 C117.97754344 290.87620097 117.97754344 290.87620097 107.859375 291.69726562 C101.0614278 292.24891371 94.26351206 292.8009246 87.46582031 293.35571289 C81.96098323 293.80495604 76.45597551 294.25205882 70.95086288 294.69791222 C68.89220339 294.86497437 66.83359764 295.03270079 64.77505875 295.20124245 C43.19392686 296.96718346 21.60047077 298.45710923 0 300 C0 201 0 102 0 0 Z " fill="#D81E25" transform="translate(214,0)"/>
<path d="M0 0 C47.19 0 94.38 0 143 0 C143 16.83 143 33.66 143 51 C112.64 51 82.28 51 51 51 C51 72.12 51 93.24 51 115 C73.77 115 96.54 115 120 115 C120 131.83 120 148.66 120 166 C97.23 166 74.46 166 51 166 C51 203.95 51 241.9 51 281 C34.17 281 17.34 281 0 281 C0 188.27 0 95.54 0 0 Z " fill="#D71F26" transform="translate(575,0)"/>
<path d="M0 0 C51.48 0 102.96 0 156 0 C156 16.83 156 33.66 156 51 C138.84 51 121.68 51 104 51 C104 127.89 104 204.78 104 284 C86.84 284.33 69.68 284.66 52 285 C52 207.78 52 130.56 52 51 C34.84 51 17.68 51 0 51 C0 34.17 0 17.34 0 0 Z " fill="#D81F26" transform="translate(387,0)"/>
<path d="M0 0 C17.16 0 34.32 0 52 0 C52 77.88 52 155.76 52 236 C68.83 236.495 68.83 236.495 86 237 C94.10505311 237.40338917 102.2009314 237.80904662 110.29956055 238.30224609 C113.68042567 238.50714701 117.06181826 238.7011358 120.44335938 238.89453125 C122.609412 239.02281433 124.77542938 239.15169422 126.94140625 239.28125 C127.94514786 239.338573 128.94888947 239.395896 129.98304749 239.45495605 C131.34990944 239.5400946 131.34990944 239.5400946 132.74438477 239.62695312 C133.54562271 239.67501099 134.34686066 239.72306885 135.17237854 239.77258301 C137 240 137 240 138 241 C138.09333705 242.59610982 138.11745372 244.19633428 138.11352539 245.79516602 C138.11344986 246.81614883 138.11337433 247.83713165 138.11329651 248.88905334 C138.10813522 249.9994548 138.10297394 251.10985626 138.09765625 252.25390625 C138.09553383 253.94978127 138.09553383 253.94978127 138.09336853 255.67991638 C138.08775019 259.30747065 138.07519458 262.93496424 138.0625 266.5625 C138.05748736 269.01497307 138.05292405 271.4674471 138.04882812 273.91992188 C138.0377748 279.94663545 138.02101884 285.97331339 138 292 C137.30353363 291.95654953 136.60706726 291.91309906 135.88949585 291.86833191 C128.9362472 291.43580412 121.98259842 291.01035086 115.02855492 290.5908308 C111.46332666 290.37555263 107.89823671 290.15852158 104.33349609 289.93530273 C69.57379645 287.76996522 34.80484208 286.49163609 0 285 C0 190.95 0 96.9 0 0 Z " fill="#D81F26" transform="translate(748,0)"/>
<path d="M0 0 C16.5 0 33 0 50 0 C50 98.67 50 197.34 50 299 C8 296 8 296 0 295 C0 197.65 0 100.3 0 0 Z " fill="#D71E25" transform="translate(928,0)"/>
</svg>
