<?xml version="1.0" encoding="UTF-8"?>
<svg version="1.1" xmlns="http://www.w3.org/2000/svg" width="225" height="224">
<path d="M0 0 C74.25 0 148.5 0 225 0 C225 73.92 225 147.84 225 224 C150.75 224 76.5 224 0 224 C0 150.08 0 76.16 0 0 Z " fill="#030303" transform="translate(0,0)"/>
<path d="M0 0 C0.33 0 0.66 0 1 0 C1.08636719 0.57105469 1.17273438 1.14210938 1.26171875 1.73046875 C3.43517482 14.27270608 7.77026561 25.30204993 17.23046875 34.06640625 C18.10638672 35.02353516 18.10638672 35.02353516 19 36 C18.75 38.875 18.75 38.875 18.37890625 40.71484375 C16.0095599 55.00420062 19.16770999 70.11925258 26.98046875 82.2578125 C35.69648418 94.09271159 48.29069699 102.60254065 63 105 C65.96635589 105.23045528 68.901417 105.23557913 71.875 105.1875 C73.06452271 105.18762085 73.06452271 105.18762085 74.27807617 105.18774414 C78.4492901 105.159956 82.22434085 104.82360346 86.3125 103.9375 C92.2347816 103.16281256 96.37028207 107.323555 100.8125 110.69921875 C112.38621517 119.05328522 127.37009607 119.55743306 141.12207031 117.71582031 C155.0746231 115.06462205 166.96189681 106.69298903 175.0078125 95.109375 C178.39395687 89.58386745 180.82546073 84.42864274 182.1015625 78.05859375 C184.13288277 73.40422078 190.47109931 71.79864333 194.8125 69.75 C209.0187988 62.76786927 216.90241788 51.87458531 222 37 C222.81459662 34.00041765 223.43881929 31.0609857 224 28 C224.33 28 224.66 28 225 28 C225 58.36 225 88.72 225 120 C150.75 120 76.5 120 0 120 C0 80.4 0 40.8 0 0 Z " fill="#FCFCFC" transform="translate(0,104)"/>
<path d="M0 0 C74.25 0 148.5 0 225 0 C225 40.26 225 80.52 225 122 C224.67 122 224.34 122 224 122 C223.85304687 120.98421875 223.70609375 119.9684375 223.5546875 118.921875 C221.68602128 107.04642875 218.67779874 97.56627772 210.0625 88.75 C206.00772903 84.47147076 206.00772903 84.47147076 205.9375 80.1875 C206.10636719 79.54554687 206.27523437 78.90359375 206.44921875 78.2421875 C209.51589857 65.75797319 205.68289809 51.88447736 199.796875 40.85546875 C191.89145116 28.29271913 180.2087427 19.68904452 165.9375 15.6875 C157.22976277 14.01838581 146.79381255 13.95483162 138.1875 16.0625 C133.78902845 16.71667581 131.01186402 14.29975887 127.625 11.8125 C127.07424805 11.39621338 126.52349609 10.97992676 125.95605469 10.55102539 C120.99404246 6.82077515 115.98729651 4.67924176 110 3 C109.38511719 2.82637939 108.77023438 2.65275879 108.13671875 2.47387695 C94.03109081 -0.6544393 78.52893465 1.91485275 66.25 9.1875 C55.55238574 16.52656094 46.74917705 26.13318705 43.875 39.05859375 C42.70478364 43.1284309 41.56791263 44.79990599 37.8671875 46.8828125 C36.21673398 47.6597988 34.55167929 48.40635467 32.875 49.125 C31.14414475 49.95332861 29.41749559 50.79050744 27.6953125 51.63671875 C26.87579102 52.03681152 26.05626953 52.4369043 25.21191406 52.84912109 C13.41152767 58.98896893 7.31291036 70.92858563 2.93359375 82.9609375 C1.78552085 86.698179 1.22914838 90.10447758 1 94 C0.67 94 0.34 94 0 94 C0 62.98 0 31.96 0 0 Z " fill="#FCFCFC" transform="translate(0,0)"/>
<path d="M0 0 C4.28338787 1.65672591 8.21491331 3.70860204 12.1875 6 C12.81591797 6.35578125 13.44433594 6.7115625 14.09179688 7.078125 C16.66706373 8.55442771 18.89138726 9.89138726 21 12 C21.26069641 14.28573608 21.26069641 14.28573608 21.2746582 17.17724609 C21.28419022 18.25952484 21.29372223 19.34180359 21.30354309 20.45687866 C21.30263168 21.63384308 21.30172028 22.8108075 21.30078125 24.0234375 C21.30506638 25.23512604 21.3093515 26.44681458 21.31376648 27.69522095 C21.31952239 30.2693011 21.32000083 32.84339752 21.31567383 35.41748047 C21.31254075 39.32418397 21.33586422 43.23011048 21.36132812 47.13671875 C21.36360391 49.64062405 21.36430332 52.14453137 21.36328125 54.6484375 C21.372491 55.80515961 21.38170074 56.96188171 21.39118958 58.15365601 C21.31475418 71.82144092 18.14166001 83.29924998 9 93.6875 C-1.25123665 103.38586097 -13.80301858 105.4752415 -27.26953125 105.28515625 C-35.39602228 104.96712838 -41.56264835 101.74331174 -48 97 C-44.60578219 94.16968396 -41.19137862 91.82788715 -37.3515625 89.64453125 C-36.2699585 89.02610352 -35.18835449 88.40767578 -34.07397461 87.77050781 C-32.93581299 87.12436523 -31.79765137 86.47822266 -30.625 85.8125 C-28.86618275 84.80550458 -27.10857486 83.79642027 -25.35099792 82.78726196 C-23.62695807 81.79749324 -21.902107 80.80913797 -20.17724609 79.82080078 C-16.08889693 77.47786947 -12.00201033 75.13408066 -7.9375 72.75 C-7.33180176 72.40428955 -6.72610352 72.0585791 -6.10205078 71.70239258 C-2.63077988 69.66882546 -2.63077988 69.66882546 -1 66 C-0.88237799 63.86908944 -0.8231306 61.73479475 -0.79467773 59.60083008 C-0.78477814 58.95665634 -0.77487854 58.3124826 -0.76467896 57.64878845 C-0.73312533 55.5224066 -0.70833095 53.39600242 -0.68359375 51.26953125 C-0.66301891 49.79407678 -0.6420223 48.31862814 -0.62062073 46.84318542 C-0.56545474 42.96180949 -0.51602138 39.08038085 -0.46777344 35.19891357 C-0.41751842 31.23737909 -0.36185324 27.27592106 -0.30664062 23.31445312 C-0.19912601 15.54303351 -0.09766623 7.77155028 0 0 Z " fill="#FBFBFB" transform="translate(152,105)"/>
<path d="M0 0 C-0.01633987 0.6712793 -0.03267975 1.34255859 -0.04951477 2.03417969 C-0.20724755 9.0430109 -0.27325676 16.04852075 -0.28686523 23.05908203 C-0.30386358 25.67229423 -0.34398045 28.28546502 -0.40795898 30.89794922 C-1.3842963 44.32883752 -1.3842963 44.32883752 2.15411377 56.88391113 C5.48968383 60.19475633 9.64427366 61.5125769 14 63 C15.9534124 64.09492263 17.88250123 65.23468138 19.78125 66.421875 C21.68641522 67.53311189 23.59268635 68.64245471 25.5 69.75 C26.51449219 70.34055176 27.52898437 70.93110352 28.57421875 71.53955078 C38.68417371 77.41556963 48.83440205 83.22088324 59 89 C59 89.66 59 90.32 59 91 C56.1140277 92.68419305 53.2147882 94.34410697 50.3125 96 C49.49587891 96.47695312 48.67925781 96.95390625 47.83789062 97.4453125 C47.04189453 97.89648438 46.24589844 98.34765625 45.42578125 98.8125 C44.69786377 99.23144531 43.96994629 99.65039062 43.2199707 100.08203125 C40.54917694 101.18641754 38.87014063 101.34342384 36 101 C33.53076172 99.8894043 33.53076172 99.8894043 30.9296875 98.32421875 C29.9598291 97.74889404 28.9899707 97.17356934 27.99072266 96.58081055 C26.96253418 95.95601807 25.9343457 95.33122559 24.875 94.6875 C22.71400286 93.39506189 20.55253852 92.10340467 18.390625 90.8125 C17.31490234 90.16667969 16.23917969 89.52085937 15.13085938 88.85546875 C12.29125425 87.17260857 9.43164133 85.54133599 6.546875 83.9375 C-9.3161019 75.1088192 -20.81421226 66.15378246 -26.3046875 48.13671875 C-28.72876118 37.20115039 -26.95019519 26.98034492 -21.45703125 17.2734375 C-16.95583288 10.45468849 -8.91500615 0 0 0 Z " fill="#F9F9F9" transform="translate(40,60)"/>
<path d="M0 0 C0.26246434 3.87370451 0.42153564 7.74512381 0.5625 11.625 C0.63791016 12.71941406 0.71332031 13.81382812 0.79101562 14.94140625 C1.00573767 22.81454778 1.00573767 22.81454778 -1.5534668 25.83105469 C-3.94936999 27.46841687 -6.39438025 28.72136782 -9 30 C-11.22239016 31.28314458 -13.43949822 32.57546443 -15.65234375 33.875 C-18.07598116 35.2584162 -20.50703521 36.62862222 -22.9375 38 C-25.36425686 39.37328351 -27.78983202 40.74863753 -30.21484375 42.125 C-30.79817474 42.45555389 -31.38150574 42.78610779 -31.98251343 43.12667847 C-36.3409324 45.60412879 -40.64281548 48.16474466 -44.91625977 50.78564453 C-54.6836898 56.47787616 -66.53856873 56.34508795 -77.4453125 54.37890625 C-88.01555756 51.27406925 -97.45233409 44.60238197 -103 35 C-106.90923488 27.43717502 -109.15662494 21.25286944 -109.0625 12.6875 C-109.05347656 11.61886719 -109.04445313 10.55023438 -109.03515625 9.44921875 C-109.02355469 8.64097656 -109.01195313 7.83273438 -109 7 C-105.40397929 8.35072405 -102.16869983 9.95958834 -98.859375 11.90625 C-97.8789624 12.48109131 -96.8985498 13.05593262 -95.88842773 13.64819336 C-94.85274658 14.25928955 -93.81706543 14.87038574 -92.75 15.5 C-91.68402588 16.12205322 -90.61805176 16.74410645 -89.51977539 17.38500977 C-84.60359443 20.25909047 -79.7115402 23.15831594 -74.88671875 26.18359375 C-74.12713867 26.6528125 -73.36755859 27.12203125 -72.58496094 27.60546875 C-71.19398094 28.46826853 -69.81231002 29.34633692 -68.44238281 30.2421875 C-65.47986209 32.06669482 -63.2622646 32.986347 -59.7734375 33.16796875 C-54.08310415 31.40667509 -49.27632235 28.43102913 -44.1875 25.375 C-42.46871448 24.36214645 -40.74991701 23.3493126 -39.03044128 22.33763123 C-37.23740701 21.28094319 -35.44725887 20.21947863 -33.65722656 19.15771484 C-29.99330412 16.98972429 -26.30861008 14.85903422 -22.6171875 12.73828125 C-22.02176651 12.39615601 -21.42634552 12.05403076 -20.81288147 11.70153809 C-19.63711974 11.02630204 -18.4612638 10.35123003 -17.28530884 9.67633057 C-14.54426268 8.10306825 -11.80466446 6.52732864 -9.06640625 4.94921875 C-8.15834229 4.42674561 -7.25027832 3.90427246 -6.31469727 3.3659668 C-0.61090259 0 -0.61090259 0 0 0 Z " fill="#FAFAFA" transform="translate(139,142)"/>
<path d="M0 0 C9.46826481 6.80162338 15.29284034 14.92531751 18.625 26.25 C19.42100307 31.26481936 19.41758613 36.12267488 19.25 41.1875 C15.17184102 39.69026219 11.57736827 37.7276132 7.83984375 35.51953125 C7.23169327 35.1616301 6.62354279 34.80372894 5.9969635 34.4349823 C4.05852837 33.29325264 2.12295792 32.14676789 0.1875 31 C-1.0850937 30.24902221 -2.35787865 29.49836842 -3.63085938 28.74804688 C-4.25616547 28.37912323 -4.88147156 28.01019958 -5.52572632 27.63009644 C-6.7792576 26.89134347 -8.03350775 26.15380888 -9.28848267 25.41751099 C-12.26329911 23.66958933 -15.221131 21.90300756 -18.14794922 20.07568359 C-19.71246826 19.115896 -19.71246826 19.115896 -21.30859375 18.13671875 C-22.21794678 17.56655029 -23.1272998 16.99638184 -24.06420898 16.40893555 C-27.28617379 14.94366058 -29.24220996 14.75596468 -32.75 15.1875 C-35.57536934 16.38181103 -35.57536934 16.38181103 -38.328125 18.16015625 C-39.92805298 19.12864502 -39.92805298 19.12864502 -41.56030273 20.11669922 C-42.70687922 20.82778218 -43.85344471 21.53888286 -45 22.25 C-46.79516078 23.34274965 -48.59321999 24.43062545 -50.39134216 25.51849365 C-51.6300382 26.26845937 -52.86779144 27.01998434 -54.10462952 27.77301025 C-60.73845196 31.80821956 -67.45647789 35.69230526 -74.1875 39.5625 C-75.83830566 40.51588257 -75.83830566 40.51588257 -77.52246094 41.48852539 C-85.88128606 46.30347737 -85.88128606 46.30347737 -89.75 48.1875 C-90.01246434 44.31379549 -90.17153564 40.44237619 -90.3125 36.5625 C-90.38791016 35.46808594 -90.46332031 34.37367187 -90.54101562 33.24609375 C-90.75578855 25.37108662 -90.75578855 25.37108662 -88.19213867 22.35424805 C-85.7973659 20.7183685 -83.35400503 19.46526519 -80.75 18.1875 C-78.5510051 16.91613467 -76.35733271 15.63553584 -74.16796875 14.34765625 C-71.76260065 12.97329033 -69.34969007 11.61234831 -66.9375 10.25 C-65.13094944 9.2259881 -63.32495229 8.20101049 -61.51931763 7.17538452 C-60.3311628 6.50106911 -59.14226309 5.82806444 -57.9526062 5.15640259 C-54.02923483 2.93633626 -50.16330903 0.63236649 -46.30078125 -1.69140625 C-31.67355143 -10.20164028 -14.15075016 -8.84125596 0 0 Z " fill="#FBFBFB" transform="translate(175.75,33.8125)"/>
<path d="M0 0 C2.46276083 1.58082621 4.27794773 3.39306943 6.3125 5.484375 C5.62961914 5.87592773 4.94673828 6.26748047 4.24316406 6.67089844 C-7.62522601 13.4818037 -19.48756921 20.30405967 -31.25 27.296875 C-32.09336914 27.79348633 -32.93673828 28.29009766 -33.80566406 28.80175781 C-34.57233398 29.2603418 -35.33900391 29.71892578 -36.12890625 30.19140625 C-36.79607666 30.5881958 -37.46324707 30.98498535 -38.15063477 31.39379883 C-39.85096936 32.41912429 -39.85096936 32.41912429 -40.6875 34.484375 C-40.80817685 36.60786401 -40.86494375 38.73508388 -40.89282227 40.86181641 C-40.90767166 41.84248833 -40.90767166 41.84248833 -40.92282104 42.8429718 C-40.95444711 45.00725667 -40.97919772 47.1715635 -41.00390625 49.3359375 C-41.02447483 50.83524145 -41.04547128 52.33453959 -41.06687927 53.83383179 C-41.12210988 57.78262631 -41.17151476 61.73147326 -41.21972656 65.68035889 C-41.26993439 69.70882846 -41.3256242 73.73722178 -41.38085938 77.765625 C-41.48845303 85.67181056 -41.58989529 93.57805985 -41.6875 101.484375 C-44.63713896 100.32081153 -47.45261777 99.15468036 -50.203125 97.57421875 C-50.81414063 97.22423828 -51.42515625 96.87425781 -52.0546875 96.51367188 C-52.98667969 95.97323242 -52.98667969 95.97323242 -53.9375 95.421875 C-54.57429688 95.05771484 -55.21109375 94.69355469 -55.8671875 94.31835938 C-60.54675752 91.62511748 -60.54675752 91.62511748 -61.6875 90.484375 C-61.80249055 88.57424429 -61.84716951 86.65984821 -61.86450195 84.74633789 C-61.87733719 83.51738297 -61.89017242 82.28842804 -61.90339661 81.02223206 C-61.91156944 79.66716922 -61.91901213 78.31210182 -61.92578125 76.95703125 C-61.92985678 76.2753784 -61.9339323 75.59372555 -61.93813133 74.89141655 C-61.9590296 71.27486344 -61.97330791 67.65834855 -61.98266602 64.04174805 C-61.99366365 60.32636291 -62.02797368 56.61158786 -62.06783772 52.89641666 C-62.09416253 50.02482595 -62.10237236 47.15337606 -62.10594749 44.28167534 C-62.11078253 42.91389339 -62.12230735 41.5461164 -62.14098549 40.17845345 C-62.32195219 26.03398093 -58.71982845 17.00057866 -49.06640625 6.765625 C-36.3051313 -5.23058551 -15.54886204 -7.32242922 0 0 Z " fill="#FCFCFC" transform="translate(114.6875,17.515625)"/>
<path d="M0 0 C2.46923828 1.1105957 2.46923828 1.1105957 5.0703125 2.67578125 C6.0401709 3.25110596 7.0100293 3.82643066 8.00927734 4.41918945 C9.03746582 5.04398193 10.0656543 5.66877441 11.125 6.3125 C13.28599714 7.60493811 15.44746148 8.89659533 17.609375 10.1875 C18.68509766 10.83332031 19.76082031 11.47914062 20.86914062 12.14453125 C23.70874575 13.82739143 26.56835867 15.45866401 29.453125 17.0625 C45.75411596 26.13496142 57.10108285 35.43213436 62.5625 53.90234375 C64.90074806 65.11340811 61.99997153 76.47577335 56 86 C51.30084716 92.15194437 46.1473199 97.74342738 39 101 C38.34 101 37.68 101 37 101 C36.99857498 100.34711502 36.99714996 99.69423004 36.99568176 99.02156067 C36.97599027 92.22415188 36.92172779 85.42764175 36.84741211 78.63061523 C36.82421982 76.09422249 36.80983355 73.55773328 36.80444336 71.02124023 C36.79516342 67.37422476 36.75418947 63.72872936 36.70703125 60.08203125 C36.7109639 58.94852737 36.71489655 57.8150235 36.71894836 56.64717102 C36.65701406 50.34618657 36.65701406 50.34618657 33.74145508 44.91796875 C31.33465723 43.23413191 29.0086314 41.63393317 26.4296875 40.23046875 C25.54579346 39.74167236 24.66189941 39.25287598 23.7512207 38.74926758 C22.80206787 38.23388428 21.85291504 37.71850098 20.875 37.1875 C10.39060805 31.38746039 0.07071051 25.35051346 -10.21337891 19.20581055 C-11.30183105 18.55652588 -12.3902832 17.90724121 -13.51171875 17.23828125 C-14.47553467 16.66118408 -15.43935059 16.08408691 -16.43237305 15.48950195 C-18.59062102 14.23748419 -20.75287538 13.08167911 -23 12 C-23 11.34 -23 10.68 -23 10 C-20.1140277 8.31580695 -17.2147882 6.65589303 -14.3125 5 C-13.08756836 4.28457031 -13.08756836 4.28457031 -11.83789062 3.5546875 C-10.64389648 2.87792969 -10.64389648 2.87792969 -9.42578125 2.1875 C-8.69786377 1.76855469 -7.96994629 1.34960938 -7.2199707 0.91796875 C-4.54917694 -0.18641754 -2.87014063 -0.34342384 0 0 Z " fill="#FBFBFB" transform="translate(149,63)"/>
<path d="M0 0 C1.87372098 0.91406438 3.71254203 1.90163033 5.51953125 2.94140625 C6.44096924 3.46677979 7.36240723 3.99215332 8.31176758 4.53344727 C10.04463013 5.53782837 10.04463013 5.53782837 11.8125 6.5625 C15.504375 8.686875 19.19625 10.81125 23 13 C23 23.56 23 34.12 23 45 C18.978125 47.330625 14.95625 49.66125 10.8125 52.0625 C9.55284424 52.80250244 8.29318848 53.54250488 6.99536133 54.30493164 C5.9927124 54.87590576 4.99006348 55.44687988 3.95703125 56.03515625 C2.93585205 56.6269165 1.91467285 57.21867676 0.86254883 57.82836914 C-2.45363624 59.18567167 -3.65879588 59.17443589 -7 58 C-8.87372098 57.08593562 -10.71254203 56.09836967 -12.51953125 55.05859375 C-13.44096924 54.53322021 -14.36240723 54.00784668 -15.31176758 53.46655273 C-17.04463013 52.46217163 -17.04463013 52.46217163 -18.8125 51.4375 C-22.504375 49.313125 -26.19625 47.18875 -30 45 C-30 34.44 -30 23.88 -30 13 C-25.978125 10.669375 -21.95625 8.33875 -17.8125 5.9375 C-16.55284424 5.19749756 -15.29318848 4.45749512 -13.99536133 3.69506836 C-12.9927124 3.12409424 -11.99006348 2.55312012 -10.95703125 1.96484375 C-9.93585205 1.3730835 -8.91467285 0.78132324 -7.86254883 0.17163086 C-4.54636376 -1.18567167 -3.34120412 -1.17443589 0 0 Z " fill="#FCFCFC" transform="translate(116,83)"/>
</svg>
